<svg width="20" height="20" viewBox="0 0 20 20" fill="none" xmlns="http://www.w3.org/2000/svg">
<rect x="1.66675" y="1.66667" width="16.6667" height="16.6667" rx="8.33333" fill="#BCC7CC"/>
<path fill-rule="evenodd" clip-rule="evenodd" d="M6.15692 6.15706C6.46609 5.8479 6.96734 5.8479 7.27651 6.15706L13.8429 12.7235C14.1521 13.0326 14.1521 13.5339 13.8429 13.843C13.5337 14.1522 13.0325 14.1522 12.7233 13.843L6.15692 7.27665C5.84776 6.96748 5.84776 6.46623 6.15692 6.15706Z" fill="white"/>
<path fill-rule="evenodd" clip-rule="evenodd" d="M13.8429 6.15706C14.1521 6.46623 14.1521 6.96748 13.8429 7.27665L7.27651 13.843C6.96734 14.1522 6.46609 14.1522 6.15692 13.843C5.84776 13.5339 5.84776 13.0326 6.15692 12.7235L12.7233 6.15706C13.0325 5.8479 13.5337 5.8479 13.8429 6.15706Z" fill="white"/>
</svg>
